<svg id="Group_1423" data-name="Group 1423" xmlns="http://www.w3.org/2000/svg" width="134" height="53.188" viewBox="0 0 134 53.188">
  <g id="Group_68" data-name="Group 68" transform="translate(28.433 9.601)">
    <path id="Path_1249" data-name="Path 1249" d="M105.53,106.767c-.017-.035-.036-.072-.056-.105-2.768-4.581-6.45-6.873-11.115-6.873a13.035,13.035,0,0,0-5.625,1.363c-.03.015-.06.031-.089.048-4.519,2.7-6.746,6.32-6.746,10.921a14.013,14.013,0,0,0,1.486,6.131.905.905,0,0,0,.072.124c2.827,4.182,6.307,6.272,10.508,6.272h.725a12.484,12.484,0,0,0,8.638-3.759v.064L103.194,123a1.782,1.782,0,0,0,3.56.131V112.515A13.755,13.755,0,0,0,105.53,106.767Zm-2.335,5.748a8.957,8.957,0,0,1-1.026,4.031.97.97,0,0,1-.064.112c-1.969,2.994-4.4,4.493-7.416,4.493h-.725a9.9,9.9,0,0,1-3.028-.634.873.873,0,0,1-.137-.057c-3.583-1.846-5.341-4.54-5.341-8.145v-.263a9.339,9.339,0,0,1,.5-2.9,1.057,1.057,0,0,1,.052-.13c1.848-3.782,4.609-5.675,8.213-5.675h.131a9.115,9.115,0,0,1,3.649.772.992.992,0,0,1,.092.045c3.4,1.847,5.1,4.542,5.1,7.956Z" transform="translate(-81.898 -99.788)" fill="#565657"/>
  </g>
  <g id="Group_69" data-name="Group 69" transform="translate(56.933 33.346)">
    <path id="Path_1250" data-name="Path 1250" d="M110.807,123.874a1.785,1.785,0,0,0,.443.73A1.7,1.7,0,0,1,110.807,123.874Z" transform="translate(-110.807 -123.874)" fill="#565657"/>
  </g>
  <g id="Group_73" data-name="Group 73" transform="translate(109.141 10.591)">
    <g id="Group_70" data-name="Group 70" transform="translate(0 1.45)">
      <path id="Path_1251" data-name="Path 1251" d="M163.831,102.263a.4.4,0,0,0-.066.264v-.264Z" transform="translate(-163.765 -102.263)" fill="#565657"/>
      <path id="Path_1252" data-name="Path 1252" d="M167.375,102.263v.264a.4.4,0,0,0-.065-.264Z" transform="translate(-163.815 -102.263)" fill="#565657"/>
    </g>
    <g id="Group_72" data-name="Group 72" transform="translate(0 0)">
      <g id="Group_71" data-name="Group 71">
        <path id="Path_1253" data-name="Path 1253" d="M188.624,102.308v20.177c0,3.033,0,8.375-.2,10.551a10.578,10.578,0,0,1-3.495,6.858,12.932,12.932,0,0,1-8.77,3.495A12.585,12.585,0,0,1,166.8,139.1a11.439,11.439,0,0,1-2.9-7.583l-.066-1.121a1.267,1.267,0,0,1,.452-1.015,2.257,2.257,0,0,1,1.037-.484,2.005,2.005,0,0,1,1.079.184,1.675,1.675,0,0,1,.983.957,3.985,3.985,0,0,1,.076,1.282c0,.329.264,1.78.33,2.176a8.056,8.056,0,0,0,3.231,4.616,10.632,10.632,0,0,0,3.235,1.482,9.831,9.831,0,0,0,3.888.036,8.328,8.328,0,0,0,1.545-.475,7.922,7.922,0,0,0,2.212-1.372,8.283,8.283,0,0,0,2.44-3.1,7.193,7.193,0,0,0,.329-1.121,9.516,9.516,0,0,0,.33-2.242v-.066a12.164,12.164,0,0,0,.066-1.582V121.1a14.665,14.665,0,0,1-9.3,3.56,12.078,12.078,0,0,1-12-11.736V102.506c0-.066,0-.12,0-.264a1.812,1.812,0,0,1,3.551,0c0,.129,0,.2,0,.264v9.165c0,4.616,1.979,7.583,5.869,9.033a9.772,9.772,0,0,0,2.572.4h.263a9.541,9.541,0,0,0,8.375-5.21,13.153,13.153,0,0,0,.726-5.011s-.055-8.5.011-8.57a1.724,1.724,0,0,1,1.77-1.518A1.67,1.67,0,0,1,188.624,102.308Z" transform="translate(-163.765 -100.792)" fill="#565657"/>
      </g>
    </g>
  </g>
  <g id="Group_74" data-name="Group 74">
    <path id="Path_1254" data-name="Path 1254" d="M74.175,103.23a12.25,12.25,0,0,0-17.589.191V91.614a1.78,1.78,0,0,0-.6-1.123,1.777,1.777,0,0,0-2.927,1.087.247.247,0,0,0,0,.056V111.39a13.555,13.555,0,0,0,2.64,8.354q4.318,4.707,9.334,4.7h.721a12.241,12.241,0,0,0,5.52-1.437q6.625-4.009,6.622-11A12.436,12.436,0,0,0,74.175,103.23Zm-.3,11.866a6.882,6.882,0,0,1-.4.857,11.734,11.734,0,0,1-1.731,2.416,8.016,8.016,0,0,1-4.55,2.438,9.126,9.126,0,0,1-1.448.112H65.2a10.154,10.154,0,0,1-2.808-.454q-5.806-2.711-5.806-8.258v-.454a9.01,9.01,0,0,1,.553-2.906q2.759-5.711,8.156-5.711h.362a8.623,8.623,0,0,1,1.749.215,7.416,7.416,0,0,1,2.269.869,11.9,11.9,0,0,1,1.179.769,8.78,8.78,0,0,1,2.64,3.022,8.434,8.434,0,0,1,.871,3.839v.55A7.6,7.6,0,0,1,73.876,115.1Z" transform="translate(-53.057 -90.049)" fill="#565657"/>
  </g>
  <path id="Path_1255" data-name="Path 1255" d="M155.393,108.037a11.168,11.168,0,0,0-2.7-2.052,14.607,14.607,0,0,0,4.358-6.394,1.816,1.816,0,0,0-3.477-1.049c-.013.061-1.829,5.879-6.691,5.879h-.109c-.029,0-.16,0-.2,0h-3.443V91.916a1.735,1.735,0,0,0-.495-1.32,1.77,1.77,0,0,0-3.027,1.238H139.6V122.8c0,.016,0,.2,0,.2l0,.051a1.775,1.775,0,0,0,3.527-.009l.007-.042V108.047h3.443a8,8,0,0,1,6.163,2.463c3.986,4.247,3.521,12.525,3.516,12.609a1.815,1.815,0,0,0,1.694,1.925l.115,0a1.814,1.814,0,0,0,1.81-1.7C159.9,122.951,160.455,113.44,155.393,108.037Z" transform="translate(-54.282 -90.049)" fill="#565657"/>
  <path id="Path_1256" data-name="Path 1256" d="M135.591,123.584a1.687,1.687,0,0,1-1.72,1.195,1.758,1.758,0,0,1-1.7-1.207,1.147,1.147,0,0,1-.088-.574V112.713c0-4.616-1.976-7.586-5.866-9.036a9.886,9.886,0,0,0-2.573-.33h-.262a9.473,9.473,0,0,0-8.375,5.145,13.137,13.137,0,0,0-.725,5.009V123a2.04,2.04,0,0,1-.18.779,1.774,1.774,0,0,1-.3.438,1.807,1.807,0,0,1-1.83.48,1.788,1.788,0,0,1-.486-.235,2.542,2.542,0,0,1-.239-.2,1.785,1.785,0,0,1-.443-.73,1.693,1.693,0,0,1-.083-.533V101.431a1.771,1.771,0,0,1,3.412-.665,1.815,1.815,0,0,1,.124.482,4.2,4.2,0,0,1,.028.542v1.426a.486.486,0,0,1,0,.131,14.55,14.55,0,0,1,9.362-3.624,12.079,12.079,0,0,1,12,11.736V123A2.555,2.555,0,0,1,135.591,123.584Z" transform="translate(-53.873 -90.185)" fill="#565657"/>
</svg>
